<svg width="223" height="224" viewBox="0 0 223 224" fill="none" xmlns="http://www.w3.org/2000/svg">
<path d="M23.7618 178.094C21.3858 176.69 19.8738 175.178 19.2258 173.558C18.5778 172.046 18.2538 170.75 18.2538 169.67C18.2538 166.646 19.3338 162.542 21.4938 157.358C23.7618 152.174 26.7318 146.288 30.4038 139.7C34.1838 133.004 38.3418 126.092 42.8778 118.964C38.8818 118.64 35.4798 118.424 32.6718 118.316C29.8638 118.208 27.4338 118.154 25.3818 118.154H19.7118C20.8998 115.022 22.9518 112.862 25.8678 111.674C28.8918 110.378 32.4558 109.73 36.5598 109.73C38.3958 109.73 40.2858 109.838 42.2298 110.054C44.1738 110.27 46.1718 110.54 48.2238 110.864C53.7318 102.548 59.3478 94.502 65.0718 86.726C70.9038 78.842 76.3038 71.876 81.2718 65.828C86.3478 59.672 90.5598 55.028 93.9078 51.896C97.0398 48.872 99.6318 47.36 101.684 47.36C103.952 47.36 106.814 49.088 110.27 52.544C109.19 53.408 107.786 55.73 106.058 59.51C104.438 63.182 102.656 67.826 100.712 73.442C98.8758 79.058 97.0398 85.214 95.2038 91.91C93.3678 98.606 91.6398 105.464 90.0198 112.484C88.5078 119.396 87.2658 125.984 86.2938 132.248C85.4298 138.512 84.9978 144.02 84.9978 148.772C84.9978 152.876 85.4298 156.062 86.2938 158.33C87.2658 160.598 88.8318 161.732 90.9918 161.732C93.7998 161.732 96.9858 159.788 100.55 155.9C104.114 152.012 108.002 145.964 112.214 137.756L113.834 139.376C110.594 148.016 106.436 155.09 101.36 160.598C96.3918 166.106 91.2078 168.86 85.8078 168.86C81.3798 168.86 78.1398 166.916 76.0878 163.028C74.1438 159.032 73.1718 153.74 73.1718 147.152C73.1718 140.24 74.0898 132.194 75.9258 123.014C71.1738 122.258 66.7998 121.664 62.8038 121.232C58.9158 120.692 55.2978 120.206 51.9498 119.774C46.8738 129.17 41.9058 138.836 37.0458 148.772C32.2938 158.708 27.8658 168.482 23.7618 178.094ZM77.0598 117.344C78.6798 110.216 80.5698 103.034 82.7298 95.798C84.8898 88.454 87.1578 81.488 89.5338 74.9C92.0178 68.312 94.3398 62.534 96.4998 57.566C93.1518 59.618 89.2638 63.29 84.8358 68.582C80.5158 73.766 75.9258 80.138 71.0658 87.698C66.2058 95.15 61.2378 103.358 56.1618 112.322C59.8338 113.078 63.4518 113.942 67.0158 114.914C70.6878 115.778 74.0358 116.588 77.0598 117.344ZM150.933 178.094C143.265 178.094 137.055 176.15 132.303 172.262C127.659 168.482 124.257 163.568 122.097 157.52C120.045 151.472 119.019 145.154 119.019 138.566C119.019 130.034 120.315 121.448 122.907 112.808C125.499 104.168 129.009 95.96 133.437 88.184C137.973 80.3 143.103 73.334 148.827 67.286C154.551 61.13 160.545 56.324 166.809 52.868C173.181 49.304 179.445 47.522 185.601 47.522C190.029 47.522 193.593 48.602 196.293 50.762C199.101 52.814 200.505 56.378 200.505 61.454C200.505 64.586 199.965 68.15 198.885 72.146C197.805 76.034 196.347 79.814 194.511 83.486C192.675 87.05 190.623 90.02 188.355 92.396C186.195 94.772 183.981 95.96 181.713 95.96C180.849 95.96 179.931 95.69 178.959 95.15C178.095 94.61 177.339 93.638 176.691 92.234C178.311 90.398 180.093 88.13 182.037 85.43C184.089 82.622 186.033 79.706 187.869 76.682C189.705 73.55 191.163 70.526 192.243 67.61C193.431 64.586 194.025 61.94 194.025 59.672C194.025 57.512 193.377 55.784 192.081 54.488C190.893 53.084 188.895 52.382 186.087 52.382C181.443 52.382 176.583 54.272 171.507 58.052C166.539 61.832 161.679 66.908 156.927 73.28C152.283 79.544 148.071 86.564 144.291 94.34C140.511 102.116 137.487 110.054 135.219 118.154C133.059 126.254 131.979 133.976 131.979 141.32C131.979 146.612 132.735 151.688 134.247 156.548C135.759 161.3 138.189 165.134 141.537 168.05C144.993 171.074 149.421 172.586 154.821 172.586C160.545 172.586 166.215 170.966 171.831 167.726C177.555 164.486 182.793 160.22 187.545 154.928C192.297 149.636 196.077 143.912 198.885 137.756L201.153 139.376C197.589 146.396 193.269 152.876 188.193 158.816C183.117 164.648 177.447 169.292 171.183 172.748C164.919 176.312 158.169 178.094 150.933 178.094Z" fill="#709CA7"/>
</svg>
